<?xml version="1.0" encoding="UTF-8"?>
<svg id="Layer_2" data-name="Layer 2" xmlns="http://www.w3.org/2000/svg" viewBox="0 0 82.77 9">
  <defs>
    <style>
      .cls-1 {
        fill-rule: evenodd;
      }

      .cls-1, .cls-2 {
        fill: #2e4d97;
      }

      .cls-1, .cls-2, .cls-3, .cls-4 {
        stroke-width: 0px;
      }

      .cls-3 {
        fill: #818181;
      }

      .cls-4 {
        fill: #fff;
      }
    </style>
  </defs>
  <g id="Layer_2-2" data-name="Layer 2">
    <g>
      <path class="cls-1" d="M13.98,7.67c-.17.44-.4.77-.71.99-.31.22-.68.33-1.1.33-.26,0-.49-.04-.7-.11-.21-.08-.42-.2-.62-.37l.56-.99c.13.09.24.16.35.2.11.04.22.07.34.07.35,0,.61-.18.78-.54l.16-.35-2.21-5.26h1.35l1.52,3.89,1.37-3.84c.45.33.68.83.79,1.3l-1.86,4.67ZM9.09,7v-.65c-.19.23-.43.41-.72.53-.29.12-.63.18-1.01.18s-.7-.07-.98-.21c-.28-.14-.5-.34-.65-.59-.15-.25-.23-.54-.23-.85,0-.5.18-.89.53-1.17.35-.28.85-.43,1.5-.43h1.56v-.14c0-.31-.1-.56-.31-.73-.21-.17-.51-.26-.9-.26-.51,0-1.04.17-1.59.5l-.47-.9c.42-.23.8-.4,1.14-.5.34-.1.74-.15,1.2-.15.69,0,1.23.17,1.61.5.38.33.58.8.58,1.4v3.5s-1.27,0-1.27,0ZM4.4,4.8c0,.71-.2,1.27-.6,1.66-.4.4-.95.59-1.64.59-.87,0-1.59-.35-2.16-1.05l.63-1c.23.25.48.44.74.57.26.14.51.2.74.2.29,0,.52-.09.68-.26.16-.18.24-.43.24-.75V1.19H.64V0h3.76v4.8Z"/>
      <path class="cls-1" d="M13.38,1.14s2.82-.84,3.42-.64c.6.2-.37,3.94-.37,3.94,0,0,.41-3.84-3.05-3.3"/>
      <path class="cls-4" d="M8.56,5.25h0s-.97.68-2.01.44c1.59,1.43,2.8-.85,2.8-.85,0,0-.39.24-1.35-.14-.96-.38-1.56.52-1.56.52,0,0-.24,0-.5-.07.95.75,2.62.1,2.62.1"/>
      <g>
        <path class="cls-2" d="M20.77,6.77c-1.83,0-3.22-1.4-3.22-3.24s1.39-3.26,3.22-3.26c1.52,0,2.73,1,3.02,2.48h-1.35c-.26-.74-.88-1.2-1.66-1.2-1.05,0-1.85.85-1.85,1.97s.8,1.96,1.85,1.96c.82,0,1.45-.5,1.68-1.28h1.36c-.28,1.54-1.49,2.57-3.04,2.57h0Z"/>
        <path class="cls-2" d="M27.44,1.71c1.09,0,1.76.78,1.76,2v2.92h-1.3v-2.7c0-.72-.25-1.08-.84-1.08-.65,0-1.08.47-1.08,1.25v2.53h-1.3V.09h1.3v2.18c.36-.35.88-.56,1.45-.56h0Z"/>
        <path class="cls-2" d="M35.04,4.6h-3.64c.11.66.54,1.02,1.18,1.02.45,0,.82-.21,1.02-.56h1.37c-.35,1.05-1.27,1.72-2.39,1.72-1.42,0-2.49-1.1-2.49-2.54s1.07-2.54,2.49-2.54,2.49,1.14,2.49,2.52c0,.13,0,.25-.03.38ZM31.43,3.71h2.33c-.18-.59-.61-.91-1.19-.91s-.99.34-1.14.91Z"/>
        <path class="cls-2" d="M43.15,3.62v3.02h-1.3v-2.8c0-.64-.25-.98-.72-.98-.58,0-.92.43-.92,1.18v2.6h-1.27v-2.8c0-.64-.24-.98-.71-.98-.59,0-.94.43-.94,1.18v2.6h-1.3V1.83h.91l.24.6c.34-.43.87-.71,1.43-.71.61,0,1.12.29,1.4.77.33-.47.88-.77,1.49-.77,1,0,1.69.78,1.69,1.91Z"/>
      </g>
      <g>
        <path class="cls-3" d="M48.6.73v5.9h-.76V.73h.76Z"/>
        <path class="cls-3" d="M49.99,3.54c0-.44,0-.8-.03-1.15h.68l.04.7h.02c.21-.4.7-.8,1.4-.8.59,0,1.5.35,1.5,1.8v2.53h-.77v-2.44c0-.68-.25-1.25-.98-1.25-.51,0-.9.36-1.03.79-.03.1-.05.23-.05.36v2.55h-.77v-3.09Z"/>
        <path class="cls-3" d="M58.5.41v5.12c0,.38,0,.8.03,1.09h-.69l-.03-.73h-.02c-.24.47-.75.83-1.44.83-1.02,0-1.81-.87-1.81-2.15,0-1.41.87-2.27,1.9-2.27.65,0,1.08.31,1.28.65h.02V.41h.77ZM57.73,4.11c0-.1,0-.23-.03-.32-.11-.49-.53-.89-1.11-.89-.8,0-1.27.7-1.27,1.64,0,.86.42,1.57,1.25,1.57.52,0,.99-.34,1.13-.92.03-.11.03-.21.03-.33v-.73Z"/>
        <path class="cls-3" d="M63.32,5.47c0,.44,0,.82.03,1.15h-.68l-.04-.69h-.02c-.2.34-.65.79-1.4.79-.66,0-1.46-.37-1.46-1.85v-2.47h.77v2.34c0,.8.24,1.35.95,1.35.52,0,.87-.36,1.01-.7.04-.11.07-.25.07-.39v-2.6h.77v3.08Z"/>
        <path class="cls-3" d="M64.5,5.84c.23.15.63.31,1.01.31.56,0,.82-.28.82-.63s-.22-.57-.79-.78c-.76-.27-1.12-.69-1.12-1.2,0-.68.55-1.24,1.46-1.24.43,0,.8.12,1.04.26l-.19.56c-.17-.1-.47-.24-.87-.24-.46,0-.71.26-.71.58,0,.35.25.51.8.72.73.28,1.11.65,1.11,1.28,0,.74-.58,1.27-1.58,1.27-.46,0-.89-.11-1.19-.29l.19-.59Z"/>
        <path class="cls-3" d="M69,1.17v1.22h1.1v.59h-1.1v2.28c0,.52.15.82.58.82.2,0,.35-.03.45-.05l.03.58c-.15.06-.38.11-.68.11-.36,0-.65-.11-.83-.32-.22-.23-.3-.6-.3-1.1v-2.31h-.66v-.59h.66v-1.01l.75-.2Z"/>
        <path class="cls-3" d="M70.97,3.71c0-.5,0-.93-.04-1.32h.67l.03.83h.03c.19-.57.66-.93,1.17-.93.09,0,.15,0,.22.03v.73c-.08-.02-.16-.03-.26-.03-.54,0-.93.41-1.03.99-.02.1-.03.23-.03.36v2.26h-.76v-2.91Z"/>
        <path class="cls-3" d="M74.72,1.2c0,.26-.18.47-.49.47-.27,0-.46-.21-.46-.47s.2-.48.48-.48.47.21.47.48ZM73.86,6.62V2.39h.77v4.23h-.77Z"/>
        <path class="cls-3" d="M76.34,4.65c.02,1.04.68,1.47,1.45,1.47.55,0,.88-.1,1.17-.22l.13.55c-.27.12-.73.26-1.41.26-1.3,0-2.08-.86-2.08-2.13s.75-2.28,1.99-2.28c1.38,0,1.75,1.22,1.75,1.99,0,.16-.02.28-.03.36h-2.97ZM78.59,4.1c0-.49-.2-1.25-1.07-1.25-.78,0-1.12.72-1.18,1.25h2.25Z"/>
        <path class="cls-3" d="M80.19,5.84c.23.15.63.31,1.01.31.56,0,.82-.28.82-.63s-.22-.57-.79-.78c-.76-.27-1.12-.69-1.12-1.2,0-.68.55-1.24,1.46-1.24.43,0,.8.12,1.04.26l-.19.56c-.17-.1-.47-.24-.87-.24-.45,0-.71.26-.71.58,0,.35.25.51.8.72.73.28,1.11.65,1.11,1.28,0,.74-.58,1.27-1.58,1.27-.46,0-.89-.11-1.19-.29l.19-.59Z"/>
      </g>
    </g>
  </g>
</svg>