<?xml version="1.0" encoding="UTF-8"?>
<svg id="Layer_2" data-name="Layer 2" xmlns="http://www.w3.org/2000/svg" viewBox="0 0 75.26 8.9">
  <defs>
    <style>
      .cls-1 {
        fill: #2e4d97;
        fill-rule: evenodd;
      }

      .cls-1, .cls-2, .cls-3 {
        stroke-width: 0px;
      }

      .cls-2 {
        fill: #818181;
      }

      .cls-3 {
        fill: #fff;
      }
    </style>
  </defs>
  <g id="Layer_2-2" data-name="Layer 2">
    <g>
      <path class="cls-1" d="M13.83,7.59c-.16.44-.4.76-.71.98-.31.22-.67.33-1.09.33-.26,0-.49-.04-.7-.11-.21-.08-.41-.2-.62-.36l.55-.98c.13.09.24.16.35.2.11.04.22.06.34.06.35,0,.61-.18.77-.53l.16-.35-2.19-5.2h1.34l1.5,3.85,1.36-3.8c.44.32.67.82.78,1.28l-1.84,4.62ZM8.99,6.93v-.64c-.18.23-.42.41-.71.52-.29.12-.62.18-1,.18s-.69-.07-.97-.21c-.28-.14-.5-.34-.65-.59-.15-.25-.23-.53-.23-.84,0-.49.17-.88.52-1.16.35-.28.84-.42,1.48-.43h1.54v-.14c0-.31-.1-.55-.31-.72-.2-.17-.5-.26-.89-.26-.5,0-1.03.16-1.57.49l-.47-.89c.42-.23.79-.4,1.13-.5.34-.1.74-.15,1.19-.15.69,0,1.22.16,1.6.49.38.33.57.79.58,1.39v3.46s-1.26,0-1.26,0ZM4.35,4.75c0,.71-.2,1.25-.59,1.65-.4.39-.94.59-1.62.59-.86,0-1.57-.35-2.14-1.04l.62-.99c.23.24.48.43.74.57.26.14.51.2.74.2.29,0,.52-.09.68-.26.16-.17.24-.42.24-.75V1.18H.63V0h3.72v4.75Z"/>
      <path class="cls-2" d="M73.23,4.87c.49,0,.87-.11,1.14-.34.27-.22.4-.55.4-.97s-.13-.73-.4-.94c-.27-.22-.65-.32-1.14-.32h-1.37v2.57h1.37ZM73.25,1.84c.64,0,1.13.15,1.48.45.35.3.52.72.52,1.26s-.17,1-.52,1.31c-.35.31-.84.46-1.48.46h-1.39v1.67h-.51V1.84h1.9ZM67.57,1.84h.51v4.7h2.27v.46h-2.78V1.84ZM63.78,1.84h.51v4.7h2.27v.46h-2.78V1.84ZM60.35,3.82c-.15-.09-.31-.17-.49-.22-.18-.05-.36-.08-.54-.08-.25,0-.44.05-.59.14-.15.1-.22.24-.22.43,0,.13.04.24.12.32.08.08.18.15.3.2.12.05.29.11.51.17.27.08.48.16.65.23.17.08.31.19.43.33.12.15.18.34.18.57,0,.35-.13.62-.4.8-.27.18-.6.28-1,.28-.28,0-.55-.05-.81-.14-.26-.09-.48-.23-.66-.4l.2-.35c.17.15.37.27.59.36.23.09.46.13.7.13.26,0,.47-.05.64-.16.16-.11.25-.27.25-.47,0-.14-.04-.26-.13-.35-.08-.09-.19-.16-.31-.21-.13-.05-.3-.11-.52-.18-.26-.08-.47-.15-.63-.23-.16-.07-.3-.18-.41-.32-.11-.14-.17-.32-.17-.55,0-.34.13-.59.38-.77s.57-.26.95-.26c.22,0,.44.03.64.09.21.06.39.14.55.24l-.19.38ZM56.88,4.84c-.02-.4-.16-.72-.4-.96-.24-.24-.56-.36-.96-.36s-.71.12-.97.36c-.26.24-.41.56-.45.96h2.78ZM55.52,3.12c.6,0,1.06.19,1.37.57.31.38.46.89.44,1.54h-3.22c.03.41.19.75.46,1,.27.25.6.38,1,.38.25,0,.47-.04.69-.13.21-.09.39-.21.55-.38l.28.28c-.19.2-.41.36-.67.47-.26.11-.55.17-.87.17-.37,0-.71-.08-1-.25-.29-.16-.52-.39-.68-.69-.16-.3-.25-.63-.25-1.01s.08-.71.25-1.01c.16-.3.39-.53.68-.69.29-.16.62-.25.98-.25ZM52.76,4.01c-.31-.3-.7-.46-1.16-.46-.28,0-.52.06-.74.19-.22.13-.39.31-.52.53-.12.23-.18.49-.18.79s.06.56.18.79c.12.23.3.41.52.54s.47.19.74.19c.25,0,.48-.04.69-.13.21-.09.38-.22.53-.38l.28.3c-.17.21-.39.37-.65.48-.26.11-.55.17-.87.17-.37,0-.7-.08-.99-.25-.29-.16-.52-.4-.68-.69-.16-.3-.25-.63-.25-1.01s.08-.71.25-1.01c.16-.3.39-.53.68-.69.29-.16.62-.25.99-.25.3,0,.57.05.82.15.25.1.46.24.64.41l-.28.33ZM47.26,3.12c.46,0,.82.13,1.09.4.26.27.39.64.39,1.1v2.37h-.5v-2.26c0-.36-.1-.65-.3-.86-.2-.21-.48-.31-.84-.31-.4,0-.72.13-.96.37-.24.24-.37.57-.41.97v2.08h-.49v-3.86h.49v.9c.13-.3.33-.53.59-.68.26-.15.57-.23.94-.24ZM43.77,4.84c-.02-.4-.16-.72-.4-.96-.24-.24-.56-.36-.96-.36s-.71.12-.97.36c-.26.24-.41.56-.45.96h2.78ZM42.4,3.12c.6,0,1.06.19,1.37.57.31.38.46.89.44,1.54h-3.22c.03.41.19.75.46,1,.27.25.6.38,1,.38.25,0,.47-.04.69-.13.21-.09.39-.21.55-.38l.28.28c-.19.2-.41.36-.67.47-.26.11-.55.17-.87.17-.37,0-.71-.08-1-.25-.29-.16-.52-.39-.68-.69-.16-.3-.25-.63-.25-1.01s.08-.71.25-1.01c.16-.3.39-.53.68-.69.29-.16.62-.25.98-.25ZM39.22,1.67c.1,0,.18.03.24.1.06.07.1.15.1.25s-.03.18-.1.25c-.07.07-.15.1-.24.1-.1,0-.18-.03-.25-.1-.07-.07-.1-.15-.1-.25s.03-.18.1-.25c.07-.07.15-.1.25-.1ZM38.97,3.13h.49v3.86h-.49v-3.86ZM37.52,4.01c-.31-.3-.7-.46-1.16-.46-.28,0-.52.06-.74.19-.22.13-.39.31-.52.53-.12.23-.18.49-.18.79s.06.56.18.79c.12.23.3.41.52.54s.47.19.74.19c.25,0,.48-.04.69-.13.21-.09.38-.22.53-.38l.28.3c-.17.21-.39.37-.65.48-.26.11-.55.17-.87.17-.37,0-.7-.08-.99-.25-.29-.16-.52-.4-.68-.69-.16-.3-.25-.63-.25-1.01s.08-.71.25-1.01c.16-.3.39-.53.68-.69.29-.16.62-.25.99-.25.3,0,.57.05.82.15.25.1.46.24.64.41l-.28.33ZM33.52,3.82c-.15-.09-.31-.17-.49-.22-.18-.05-.36-.08-.54-.08-.25,0-.44.05-.59.14-.15.1-.23.24-.23.43,0,.13.04.24.12.32.08.08.18.15.3.2.12.05.29.11.51.17.27.08.48.16.65.23.17.08.31.19.43.33.12.15.18.34.18.57,0,.35-.13.62-.4.8-.27.18-.6.28-1,.28-.28,0-.55-.05-.81-.14-.26-.09-.48-.23-.66-.4l.2-.35c.17.15.37.27.59.36.23.09.46.13.7.13.26,0,.47-.05.64-.16.16-.11.25-.27.25-.47,0-.14-.04-.26-.13-.35-.08-.09-.19-.16-.31-.21-.13-.05-.3-.11-.52-.18-.26-.08-.47-.15-.63-.23-.16-.07-.3-.18-.41-.32-.11-.14-.17-.32-.17-.55,0-.34.13-.59.38-.77.25-.17.57-.26.95-.26.22,0,.44.03.64.09.21.06.39.14.55.24l-.19.38ZM30.04,4.84c-.02-.4-.16-.72-.4-.96-.24-.24-.56-.36-.96-.36s-.71.12-.97.36c-.26.24-.41.56-.45.96h2.78ZM28.68,3.12c.6,0,1.06.19,1.37.57.31.38.46.89.44,1.54h-3.22c.03.41.19.75.46,1,.27.25.6.38,1,.38.25,0,.47-.04.69-.13.21-.09.39-.21.55-.38l.28.28c-.19.2-.41.36-.67.47-.26.11-.55.17-.87.17-.37,0-.71-.08-1-.25s-.52-.39-.68-.69c-.16-.3-.25-.63-.25-1.01s.08-.71.25-1.01c.16-.3.39-.53.68-.69s.62-.25.98-.25ZM26.18,1.91c-.21,0-.38.07-.52.21-.14.14-.21.33-.21.57v.55h1.14v.39h-1.14v3.37h-.49v-3.37h-.49v-.39h.49v-.49c0-.26.05-.48.16-.67.11-.19.25-.34.44-.45.18-.1.38-.15.59-.15.24,0,.47.06.68.18l-.13.4c-.18-.09-.35-.14-.52-.14ZM23.17,1.67c.1,0,.18.03.24.1.06.07.1.15.1.25s-.03.18-.1.25c-.07.07-.15.1-.24.1-.1,0-.18-.03-.25-.1-.07-.07-.1-.15-.1-.25s.03-.18.1-.25c.07-.07.15-.1.25-.1ZM22.92,3.13h.49v3.86h-.49v-3.86ZM19.22,1.84h.51v4.7h2.27v.46h-2.78V1.84Z"/>
      <path class="cls-1" d="M13.24,1.13s2.79-.83,3.38-.63c.59.2-.37,3.89-.37,3.89,0,0,.41-3.8-3.01-3.27"/>
      <path class="cls-3" d="M8.47,5.19h0s-.96.67-1.99.44c1.58,1.41,2.77-.84,2.77-.84,0,0-.38.24-1.34-.14-.95-.38-1.54.51-1.54.51,0,0-.24,0-.5-.07.94.74,2.6.1,2.6.1"/>
    </g>
  </g>
</svg>